P3
# Created by GIMP version 2.10.36 PNM plug-in
50 50
255
255
255
255
255
255
255
255
255
255
255
255
255
255
255
255
255
255
255
255
255
255
255
255
255
255
255
255
255
255
255
255
255
255
255
255
255
255
255
255
255
255
255
255
255
255
255
255
255
255
255
255
255
255
255
255
255
255
255
255
255
255
255
255
252
252
252
217
217
217
183
183
183
115
113
113
78
76
75
146
145
145
214
214
214
253
253
253
255
255
255
255
255
255
255
255
255
255
255
255
255
255
255
255
255
255
255
255
255
255
255
255
255
255
255
255
255
255
255
255
255
255
255
255
255
255
255
255
255
255
255
255
255
255
255
255
255
255
255
255
255
255
255
255
255
255
255
255
255
255
255
255
255
255
255
255
255
255
255
255
255
255
255
255
255
255
255
255
255
255
255
255
255
255
255
255
255
255
255
255
255
255
255
255
255
255
255
255
255
255
255
255
255
255
255
255
255
255
255
255
255
255
255
255
255
255
255
255
253
253
253
202
202
202
122
120
120
20
4
1
20
4
1
20
4
1
20
4
1
20
4
1
20
4
1
128
127
127
221
220
220
255
255
255
255
255
255
255
255
255
255
255
255
255
255
255
255
255
255
255
255
255
255
255
255
255
255
255
255
255
255
255
255
255
255
255
255
255
255
255
255
255
255
255
255
255
255
255
255
255
255
255
255
255
255
255
255
255
255
255
255
255
255
255
255
255
255
255
255
255
255
255
255
255
255
255
255
255
255
255
255
255
255
255
255
255
255
255
255
255
255
255
255
255
255
255
255
255
255
255
255
255
255
255
255
255
255
255
255
255
255
255
254
254
254
209
209
209
124
123
122
20
4
1
20
4
1
20
4
1
20
4
1
20
4
1
20
4
1
20
4
1
20
4
1
20
4
1
42
35
34
170
169
169
247
246
246
255
255
255
255
255
255
255
255
255
255
255
255
255
255
255
255
255
255
255
255
255
255
255
255
255
255
255
255
255
255
255
255
255
255
255
255
255
255
255
255
255
255
255
255
255
255
255
255
255
255
255
255
255
255
255
255
255
255
255
255
255
255
255
255
255
255
255
255
255
255
255
255
255
255
255
255
255
255
255
255
255
255
255
255
255
255
255
255
255
255
255
255
255
255
255
255
255
255
255
255
255
255
255
255
255
204
204
204
20
4
1
20
4
1
20
4
1
20
4
1
20
4
1
20
4
1
20
4
1
20
4
1
20
4
1
20
4
1
20
4
1
21
4
1
33
10
5
122
118
117
230
230
230
255
255
255
255
255
255
255
255
255
255
255
255
255
255
255
255
255
255
255
255
255
255
255
255
255
255
255
255
255
255
255
255
255
255
255
255
255
255
255
255
255
255
255
255
255
255
255
255
255
255
255
255
255
255
255
255
255
255
255
255
255
255
255
255
255
255
255
255
255
255
255
255
255
255
255
255
255
255
255
255
255
255
255
255
255
255
255
255
255
255
255
255
255
255
255
255
255
255
255
255
255
255
184
184
184
20
4
1
20
4
1
20
4
1
20
4
1
20
4
1
15
2
0
13
0
0
13
0
0
11
0
0
13
0
0
19
3
1
20
4
1
16
2
0
36
11
6
89
80
78
238
238
238
255
255
255
255
255
255
255
255
255
255
255
255
255
255
255
255
255
255
255
255
255
255
255
255
255
255
255
255
255
255
255
255
255
255
255
255
255
255
255
255
255
255
255
255
255
255
255
255
255
255
255
255
255
255
255
255
255
255
255
255
255
255
255
255
255
255
255
255
255
255
255
255
255
255
255
255
255
255
255
255
255
255
255
255
255
255
255
255
255
255
255
255
255
255
255
255
255
255
255
188
187
187
20
4
1
20
4
1
20
4
1
18
3
0
10
0
0
41
13
6
104
44
28
115
50
32
89
37
23
63
24
14
16
0
0
13
1
0
20
4
1
14
2
0
73
28
16
222
221
221
255
255
255
255
255
255
255
255
255
255
255
255
255
255
255
255
255
255
255
255
255
255
255
255
255
255
255
255
255
255
255
255
255
255
255
255
255
255
255
255
255
255
255
255
255
255
255
255
255
255
255
255
255
255
255
255
255
255
255
255
255
255
255
255
255
255
255
255
255
255
255
255
255
255
255
255
255
255
255
255
255
255
255
255
255
255
255
255
255
255
255
255
255
255
255
255
255
255
255
188
187
187
20
4
1
20
4
1
14
1
0
20
3
1
108
50
34
195
106
75
222
127
92
233
139
101
225
131
94
212
117
84
147
76
53
48
15
8
14
1
0
17
3
0
36
11
6
224
223
223
255
255
255
255
255
255
255
255
255
255
255
255
255
255
255
255
255
255
255
255
255
255
255
255
255
255
255
255
255
255
255
255
255
255
255
255
255
255
255
255
255
255
255
255
255
255
255
255
255
255
255
255
255
255
255
255
255
255
255
255
255
255
255
255
255
255
255
255
255
255
255
255
255
255
255
255
255
255
255
255
255
255
255
255
255
255
255
255
255
255
255
255
255
255
255
255
255
255
255
188
187
187
20
4
1
16
2
0
40
12
6
136
64
43
226
130
94
244
152
111
239
149
109
243
153
112
243
153
113
244
154
113
249
155
114
180
92
64
66
23
12
13
0
0
23
6
2
224
223
223
255
255
255
255
255
255
255
255
255
255
255
255
255
255
255
255
255
255
255
255
255
255
255
255
255
255
255
255
255
255
255
255
255
255
255
255
255
255
255
255
255
255
255
255
255
255
255
255
255
255
255
255
255
255
255
255
255
255
255
255
255
255
255
255
255
255
255
255
255
255
255
255
255
255
255
255
255
255
255
255
255
255
255
255
255
255
255
255
255
255
255
255
255
255
255
255
255
255
255
188
187
187
19
4
1
14
0
0
141
68
46
228
132
95
240
149
110
237
147
107
233
143
104
240
150
110
240
150
110
240
150
110
241
152
111
244
152
112
193
104
73
51
16
8
25
6
2
224
224
223
255
255
255
255
255
255
255
255
255
255
255
255
255
255
255
255
255
255
255
255
255
255
255
255
255
255
255
255
255
255
255
255
255
255
255
255
255
255
255
255
255
255
255
255
255
255
255
255
255
255
255
255
255
255
255
255
255
255
255
255
255
255
255
255
255
255
255
255
255
255
255
255
255
255
255
255
255
255
255
255
255
255
255
255
255
255
255
255
255
255
255
255
255
255
255
255
255
255
255
188
187
187
11
0
0
57
19
10
217
126
90
252
160
118
245
152
112
251
158
116
244
153
113
240
150
110
241
151
111
244
154
113
249
156
115
251
158
116
254
161
119
176
98
69
28
5
1
224
223
223
255
255
255
255
255
255
255
255
255
255
255
255
255
255
255
255
255
255
255
255
255
255
255
255
255
255
255
255
255
255
255
255
255
255
255
255
255
255
255
255
255
255
255
255
255
255
255
255
255
255
255
255
255
255
255
255
255
255
255
255
255
255
255
255
255
255
255
255
255
255
255
255
255
255
255
255
255
255
255
255
255
255
255
255
255
255
255
255
255
255
255
255
255
255
255
255
255
255
255
188
187
187
24
3
1
169
92
64
225
134
97
164
87
61
113
54
36
150
84
59
230
142
104
243
153
112
235
144
105
207
117
84
170
96
68
164
92
66
205
118
85
246
152
111
121
62
42
225
224
224
255
255
255
255
255
255
255
255
255
255
255
255
255
255
255
255
255
255
255
255
255
255
255
255
255
255
255
255
255
255
255
255
255
255
255
255
255
255
255
255
255
255
255
255
255
255
255
255
255
255
255
255
255
255
255
255
255
255
255
255
255
255
255
255
255
255
255
255
255
255
255
255
255
255
255
255
255
255
255
255
255
255
255
255
255
255
255
255
255
255
255
255
255
255
255
255
255
255
255
190
190
190
150
78
54
244
150
110
190
102
71
164
80
54
105
48
32
69
21
10
165
83
57
215
123
88
208
115
82
157
73
48
80
26
14
84
35
22
165
84
58
224
132
96
225
136
99
200
198
198
255
255
255
255
255
255
255
255
255
255
255
255
255
255
255
255
255
255
255
255
255
255
255
255
255
255
255
255
255
255
255
255
255
255
255
255
255
255
255
255
255
255
255
255
255
255
255
255
255
255
255
255
255
255
255
255
255
255
255
255
255
255
255
255
255
255
255
255
255
255
255
255
255
255
255
255
255
255
255
255
255
255
255
255
255
255
255
255
255
255
255
255
255
255
255
255
248
248
248
122
118
117
211
127
92
231
138
100
177
103
73
121
60
41
79
35
23
87
32
18
149
65
42
225
134
97
224
132
96
162
77
52
116
43
25
162
79
53
222
132
97
249
157
115
237
149
109
188
186
185
255
255
255
255
255
255
255
255
255
255
255
255
255
255
255
255
255
255
255
255
255
255
255
255
255
255
255
255
255
255
255
255
255
255
255
255
255
255
255
255
255
255
255
255
255
255
255
255
255
255
255
255
255
255
255
255
255
255
255
255
255
255
255
255
255
255
255
255
255
255
255
255
255
255
255
255
255
255
255
255
255
255
255
255
255
255
255
255
255
255
255
255
255
255
255
255
237
237
237
68
37
24
211
128
93
204
114
82
84
32
19
57
17
8
58
19
11
108
46
29
204
113
80
242
151
111
215
123
89
180
91
63
104
44
27
58
22
13
75
31
19
188
107
77
247
156
115
158
153
152
255
255
255
255
255
255
255
255
255
255
255
255
255
255
255
255
255
255
255
255
255
255
255
255
255
255
255
255
255
255
255
255
255
255
255
255
255
255
255
255
255
255
255
255
255
255
255
255
255
255
255
255
255
255
255
255
255
255
255
255
255
255
255
255
255
255
255
255
255
255
255
255
255
255
255
255
255
255
255
255
255
255
255
255
255
255
255
255
255
255
255
255
255
255
255
255
224
224
224
108
65
46
208
128
92
245
153
112
209
118
84
187
97
67
184
92
64
206
113
80
241
150
110
243
153
112
235
145
106
207
116
83
201
112
80
157
78
54
165
84
58
209
123
89
252
159
117
141
132
130
254
254
254
255
255
255
255
255
255
255
255
255
255
255
255
255
255
255
255
255
255
255
255
255
255
255
255
255
255
255
255
255
255
255
255
255
255
255
255
255
255
255
255
255
255
255
255
255
255
255
255
255
255
255
255
255
255
255
255
255
255
255
255
255
255
255
255
255
255
255
255
255
255
255
255
255
255
255
255
255
255
255
255
255
255
255
255
255
255
255
255
255
255
255
255
255
191
190
189
157
82
57
217
132
96
236
145
106
241
151
111
244
153
113
209
118
84
229
139
102
237
146
106
243
152
111
245
153
113
231
138
101
228
136
99
229
137
99
232
140
102
244
154
113
244
152
112
161
91
68
205
204
204
255
255
255
255
255
255
255
255
255
255
255
255
255
255
255
255
255
255
255
255
255
255
255
255
255
255
255
255
255
255
255
255
255
255
255
255
255
255
255
255
255
255
255
255
255
255
255
255
255
255
255
255
255
255
255
255
255
255
255
255
255
255
255
255
255
255
255
255
255
255
255
255
255
255
255
255
255
255
255
255
255
255
255
255
255
255
255
255
255
255
255
255
255
186
184
184
205
114
82
218
125
90
222
131
95
229
138
101
217
126
91
188
98
68
155
75
50
135
62
41
180
94
65
148
73
49
164
88
61
209
116
83
234
144
105
244
154
113
240
150
110
244
154
113
231
136
99
184
181
181
255
255
255
255
255
255
255
255
255
255
255
255
255
255
255
255
255
255
255
255
255
255
255
255
255
255
255
255
255
255
255
255
255
255
255
255
255
255
255
255
255
255
255
255
255
255
255
255
255
255
255
255
255
255
255
255
255
255
255
255
255
255
255
255
255
255
255
255
255
255
255
255
255
255
255
255
255
255
255
255
255
255
255
255
255
255
255
255
255
255
255
255
255
203
201
201
195
104
74
195
102
72
193
101
71
192
100
71
192
100
70
197
104
74
192
100
71
168
84
58
159
75
51
156
75
51
161
80
55
195
102
72
223
132
96
243
153
113
240
150
110
249
155
114
168
102
80
225
225
225
255
255
255
255
255
255
255
255
255
255
255
255
255
255
255
255
255
255
255
255
255
255
255
255
255
255
255
255
255
255
255
255
255
255
255
255
255
255
255
255
255
255
255
255
255
255
255
255
255
255
255
255
255
255
255
255
255
255
255
255
255
255
255
255
255
255
255
255
255
255
255
255
255
255
255
255
255
255
255
255
255
255
255
255
255
255
255
255
255
255
255
255
255
235
235
235
142
73
51
211
113
80
193
102
72
194
102
72
194
102
72
173
85
58
186
97
67
160
79
54
167
82
56
182
92
64
222
127
92
229
137
99
193
101
71
225
135
98
244
154
114
246
149
109
148
132
129
255
255
255
255
255
255
255
255
255
255
255
255
255
255
255
255
255
255
255
255
255
255
255
255
255
255
255
255
255
255
255
255
255
255
255
255
255
255
255
255
255
255
255
255
255
255
255
255
255
255
255
255
255
255
255
255
255
255
255
255
255
255
255
255
255
255
255
255
255
255
255
255
255
255
255
255
255
255
255
255
255
255
255
255
255
255
255
255
255
255
255
255
255
255
255
255
254
254
254
174
170
169
179
96
68
197
103
73
196
104
74
184
94
65
109
44
26
70
27
16
99
42
25
141
61
39
132
56
35
139
69
47
159
81
56
184
94
66
232
141
103
253
159
117
169
107
82
219
219
219
255
255
255
255
255
255
255
255
255
255
255
255
255
255
255
255
255
255
255
255
255
255
255
255
255
255
255
255
255
255
255
255
255
255
255
255
255
255
255
255
255
255
255
255
255
255
255
255
255
255
255
255
255
255
255
255
255
255
255
255
255
255
255
255
255
255
255
255
255
255
255
255
255
255
255
255
255
255
255
255
255
255
255
255
255
255
255
255
255
255
255
255
255
255
255
255
255
255
255
254
254
254
180
179
179
175
91
64
201
106
75
197
104
74
168
83
57
136
61
40
149
68
44
167
82
56
190
99
69
153
76
52
127
58
38
189
98
69
244
150
110
203
126
92
200
199
199
255
255
255
255
255
255
255
255
255
255
255
255
255
255
255
255
255
255
255
255
255
255
255
255
255
255
255
255
255
255
255
255
255
255
255
255
255
255
255
255
255
255
255
255
255
255
255
255
255
255
255
255
255
255
255
255
255
255
255
255
255
255
255
255
255
255
255
255
255
255
255
255
255
255
255
255
255
255
255
255
255
255
255
255
255
255
255
255
255
255
255
255
255
255
255
255
255
255
255
255
255
255
255
255
255
251
251
251
134
117
114
181
91
63
180
92
64
202
108
76
190
99
69
125
50
30
117
44
25
179
91
63
202
108
76
200
106
75
195
103
73
206
113
81
155
148
147
252
252
252
255
255
255
255
255
255
255
255
255
255
255
255
255
255
255
255
255
255
255
255
255
255
255
255
255
255
255
255
255
255
255
255
255
255
255
255
255
255
255
255
255
255
255
255
255
255
255
255
255
255
255
255
255
255
255
255
255
255
255
255
255
255
255
255
255
255
255
255
255
255
255
255
255
255
255
255
255
255
255
255
255
255
255
255
255
255
255
255
255
255
255
255
255
255
255
255
255
255
255
255
255
255
255
255
255
255
255
255
225
224
224
105
52
41
164
77
51
200
107
76
195
102
72
164
79
54
150
69
45
184
94
66
196
103
73
194
102
72
203
107
76
153
103
92
245
245
245
255
255
255
255
255
255
255
255
255
255
255
255
255
255
255
255
255
255
255
255
255
255
255
255
255
255
255
255
255
255
255
255
255
255
255
255
255
255
255
255
255
255
255
255
255
255
255
255
255
255
255
255
255
255
255
255
255
255
255
255
255
255
255
255
255
255
255
255
255
255
255
255
255
255
255
255
255
255
255
255
255
255
255
255
255
255
255
255
255
255
255
255
255
255
255
255
255
255
255
255
255
255
255
255
255
255
255
255
255
255
255
203
202
202
73
42
38
112
44
27
173
85
58
198
103
73
197
103
73
195
102
72
194
102
71
199
105
74
198
105
75
201
105
74
115
96
92
239
239
239
255
255
255
255
255
255
255
255
255
255
255
255
255
255
255
255
255
255
255
255
255
255
255
255
255
255
255
255
255
255
255
255
255
255
255
255
255
255
255
255
255
255
255
255
255
255
255
255
255
255
255
255
255
255
255
255
255
255
255
255
255
255
255
255
255
255
255
255
255
255
255
255
255
255
255
255
255
255
255
255
255
255
255
255
255
255
255
255
255
255
255
255
255
255
255
255
255
255
255
255
255
255
255
255
255
245
245
245
190
189
189
133
90
74
96
48
34
81
30
17
71
26
15
105
43
27
108
45
28
121
50
31
123
52
33
140
65
43
158
74
49
142
64
42
84
48
37
116
105
104
220
219
218
255
255
255
255
255
255
255
255
255
255
255
255
255
255
255
255
255
255
255
255
255
255
255
255
255
255
255
255
255
255
255
255
255
255
255
255
255
255
255
255
255
255
255
255
255
255
255
255
255
255
255
255
255
255
255
255
255
255
255
255
255
255
255
255
255
255
255
255
255
255
255
255
255
255
255
255
255
255
255
255
255
255
255
255
255
255
255
255
255
255
255
255
255
255
255
255
237
236
236
198
195
195
118
101
97
90
57
45
209
153
130
165
105
84
147
63
39
69
25
14
10
0
0
15
1
0
19
3
0
36
10
5
90
33
19
141
59
37
103
50
34
126
86
70
144
100
82
64
36
30
147
137
135
208
207
207
236
236
236
255
255
255
255
255
255
255
255
255
255
255
255
255
255
255
255
255
255
255
255
255
255
255
255
255
255
255
255
255
255
255
255
255
255
255
255
255
255
255
255
255
255
255
255
255
255
255
255
255
255
255
255
255
255
255
255
255
255
255
255
255
255
255
255
255
255
255
255
255
255
255
255
255
255
255
255
255
255
255
255
255
241
241
241
171
167
166
144
110
98
195
147
127
209
159
136
147
101
83
222
164
140
187
134
112
142
69
47
142
60
37
75
28
16
21
5
2
41
13
7
113
45
27
136
54
33
136
63
41
112
71
57
197
142
119
193
141
119
147
107
91
230
177
152
168
120
101
115
82
72
149
142
142
210
209
208
254
254
254
255
255
255
255
255
255
255
255
255
255
255
255
255
255
255
255
255
255
255
255
255
255
255
255
255
255
255
255
255
255
255
255
255
255
255
255
255
255
255
255
255
255
255
255
255
255
255
255
255
255
255
255
255
255
255
255
255
255
255
255
255
255
255
255
255
255
242
241
241
177
173
172
147
118
108
216
166
143
230
173
148
227
171
146
219
165
141
140
96
79
204
149
126
219
163
139
152
99
81
143
62
39
133
54
33
117
47
28
126
51
31
135
55
33
118
49
30
106
62
47
176
126
104
221
163
138
182
131
110
161
121
104
252
201
176
228
172
147
235
181
156
200
147
124
148
105
88
149
142
141
245
244
244
255
255
255
255
255
255
255
255
255
255
255
255
255
255
255
255
255
255
255
255
255
255
255
255
255
255
255
255
255
255
255
255
255
255
255
255
255
255
255
255
255
255
255
255
255
255
255
255
255
255
255
255
255
255
255
255
255
255
255
255
235
234
234
147
121
113
221
173
151
240
188
162
218
161
137
211
155
131
212
156
132
217
160
136
167
118
98
173
124
104
221
164
138
210
157
133
140
86
68
118
44
25
133
53
32
129
52
31
87
33
19
70
38
29
157
111
92
214
157
133
222
164
139
152
106
89
181
133
112
238
185
160
221
167
143
239
189
164
227
173
149
248
196
171
203
154
133
148
141
139
252
252
252
255
255
255
255
255
255
255
255
255
255
255
255
255
255
255
255
255
255
255
255
255
255
255
255
255
255
255
255
255
255
255
255
255
255
255
255
255
255
255
255
255
255
255
255
255
255
255
255
255
255
255
255
255
255
246
246
246
163
139
132
255
204
179
244
193
169
217
161
137
202
147
124
204
149
126
215
159
135
213
157
133
210
154
130
152
105
87
200
146
124
219
162
137
214
160
136
137
86
70
91
36
23
64
22
11
41
21
16
147
100
82
208
151
127
219
162
137
192
140
118
149
103
85
209
152
128
224
170
146
218
163
139
220
166
142
221
167
143
225
171
147
247
193
168
167
125
107
231
231
231
255
255
255
255
255
255
255
255
255
255
255
255
255
255
255
255
255
255
255
255
255
255
255
255
255
255
255
255
255
255
255
255
255
255
255
255
255
255
255
255
255
255
255
255
255
255
255
255
255
255
255
255
255
255
194
190
190
222
171
148
231
179
155
217
162
138
216
160
136
186
133
111
192
139
117
223
168
144
211
156
132
216
159
135
190
138
116
141
97
81
214
158
134
220
163
138
129
91
76
141
99
82
132
92
77
47
22
17
137
94
77
221
163
138
212
157
133
148
102
85
199
145
122
215
159
135
215
160
136
212
156
132
211
155
132
224
171
147
210
154
130
218
163
139
234
184
160
196
191
190
255
255
255
255
255
255
255
255
255
255
255
255
255
255
255
255
255
255
255
255
255
255
255
255
255
255
255
255
255
255
255
255
255
255
255
255
255
255
255
255
255
255
255
255
255
255
255
255
255
255
255
251
251
251
167
138
128
227
176
151
199
144
121
213
156
132
216
160
135
189
136
113
197
145
122
221
165
141
213
157
133
187
134
112
215
159
134
169
121
102
122
82
69
110
74
61
133
91
74
195
140
116
226
168
142
118
78
64
55
28
22
182
131
110
167
119
99
178
126
105
217
160
136
212
156
132
211
155
131
212
156
132
214
159
135
223
169
145
211
155
131
210
154
130
230
174
149
183
153
143
251
251
251
255
255
255
255
255
255
255
255
255
255
255
255
255
255
255
255
255
255
255
255
255
255
255
255
255
255
255
255
255
255
255
255
255
255
255
255
255
255
255
255
255
255
255
255
255
255
255
255
201
199
198
214
161
138
211
160
137
202
146
123
215
159
134
209
154
130
175
123
102
192
142
120
218
162
138
214
158
134
187
134
112
204
149
126
222
164
139
175
126
106
119
81
67
185
133
110
187
134
111
219
162
138
204
148
124
91
56
45
132
91
77
206
150
127
213
157
133
212
156
132
212
156
132
213
157
133
211
155
131
218
162
138
218
162
138
212
156
132
212
156
132
216
159
135
204
155
133
219
217
217
255
255
255
255
255
255
255
255
255
255
255
255
255
255
255
255
255
255
255
255
255
255
255
255
255
255
255
255
255
255
255
255
255
255
255
255
255
255
255
255
255
255
255
255
255
255
255
255
173
160
157
226
169
144
202
151
128
200
145
122
212
156
132
196
142
119
176
125
103
189
136
114
200
146
122
217
160
136
194
140
117
188
135
112
215
158
134
217
160
136
220
162
138
204
149
125
178
126
105
214
158
134
214
158
133
211
155
131
213
157
133
214
158
134
212
156
132
212
157
132
209
154
130
201
146
122
224
170
146
214
161
138
209
153
130
208
153
129
213
157
132
213
157
133
213
157
134
170
161
158
255
255
255
255
255
255
255
255
255
255
255
255
255
255
255
255
255
255
255
255
255
255
255
255
255
255
255
255
255
255
255
255
255
255
255
255
255
255
255
255
255
255
255
255
255
238
238
238
167
125
109
222
164
139
207
153
129
202
148
124
207
151
127
205
152
129
145
99
82
185
133
111
197
142
119
216
160
135
202
147
124
170
119
98
213
157
133
212
156
132
214
157
133
204
149
125
164
115
95
213
157
133
212
156
132
213
157
133
213
156
132
212
156
132
212
156
132
213
157
132
208
153
129
193
140
117
217
164
140
146
103
86
175
124
103
189
135
113
215
158
134
212
156
132
223
164
139
159
125
113
244
244
244
255
255
255
255
255
255
255
255
255
255
255
255
255
255
255
255
255
255
255
255
255
255
255
255
255
255
255
255
255
255
255
255
255
255
255
255
255
255
255
255
255
255
194
190
190
208
155
133
215
158
133
212
156
132
216
159
135
163
116
97
216
165
142
138
95
78
177
126
105
198
143
120
215
158
134
215
158
134
195
141
119
200
145
122
214
158
134
214
157
133
203
148
124
149
104
86
214
158
134
212
156
132
212
156
132
212
156
132
213
157
133
212
156
132
211
155
131
217
162
138
214
159
135
202
150
128
137
91
73
152
104
86
199
145
122
214
157
133
212
156
132
219
162
137
171
124
105
217
215
215
255
255
255
255
255
255
255
255
255
255
255
255
255
255
255
255
255
255
255
255
255
255
255
255
255
255
255
255
255
255
255
255
255
255
255
255
255
255
255
252
251
251
151
130
124
230
175
150
211
154
131
212
156
132
218
161
137
174
125
106
195
145
124
155
111
93
179
127
107
182
129
107
215
159
135
213
157
133
212
156
132
187
134
112
205
150
127
215
158
134
203
148
124
152
106
88
214
158
134
212
156
132
212
156
132
214
158
134
197
143
120
204
149
125
216
159
135
210
155
132
214
160
136
171
121
101
127
84
67
170
122
102
220
163
138
212
156
132
213
157
133
216
159
135
201
147
124
150
143
142
254
254
254
255
255
255
255
255
255
255
255
255
255
255
255
255
255
255
255
255
255
255
255
255
255
255
255
255
255
255
255
255
255
255
255
255
255
255
255
232
231
231
183
138
119
222
165
140
212
155
131
213
157
133
206
150
127
216
161
137
157
111
93
107
69
56
183
135
116
184
131
109
211
155
132
212
156
132
214
158
134
202
148
125
192
139
116
217
160
136
202
147
124
148
103
85
214
158
134
212
156
132
212
156
132
212
156
132
186
133
111
209
153
129
217
162
138
194
142
119
186
136
114
95
59
48
115
76
62
170
119
97
201
146
123
211
155
131
208
153
129
208
152
129
219
162
137
108
73
63
238
238
238
255
255
255
255
255
255
255
255
255
255
255
255
255
255
255
255
255
255
255
255
255
255
255
255
255
255
255
255
255
255
255
255
255
255
255
255
186
182
181
216
165
142
217
161
137
212
155
132
213
157
133
212
157
133
190
136
113
200
149
127
93
58
48
138
99
85
211
157
133
210
154
130
212
156
132
212
156
132
215
159
135
197
143
120
201
146
123
207
152
128
174
123
102
213
157
133
213
157
133
216
159
135
195
141
118
197
143
119
218
163
139
212
158
134
177
125
102
135
91
74
87
55
46
149
102
84
146
98
79
157
108
88
211
155
131
184
131
109
198
144
121
223
166
140
153
108
91
190
188
188
255
255
255
255
255
255
255
255
255
255
255
255
255
255
255
255
255
255
255
255
255
255
255
255
255
255
255
255
255
255
255
255
255
255
255
255
90
64
57
211
159
135
229
175
150
211
154
130
212
156
132
224
170
145
189
139
118
155
107
88
135
93
78
55
28
23
187
137
117
219
161
137
212
156
132
212
156
132
213
157
133
189
136
114
174
123
101
212
156
132
212
156
132
213
157
133
204
149
126
203
148
124
212
156
132
215
159
135
220
165
141
215
159
135
190
136
114
158
111
93
84
52
43
94
58
48
121
79
65
196
142
119
205
150
127
171
120
99
209
154
130
218
162
137
189
138
117
132
125
124
255
255
255
255
255
255
255
255
255
255
255
255
255
255
255
255
255
255
255
255
255
255
255
255
255
255
255
255
255
255
255
255
255
255
255
255
205
204
203
126
103
97
209
158
136
220
164
139
216
159
135
214
158
133
209
157
135
138
94
77
113
74
60
171
169
169
123
90
80
216
160
135
212
156
132
212
156
132
213
157
133
202
147
124
171
120
99
199
145
122
212
156
132
214
158
133
198
143
120
196
142
119
208
155
132
220
167
143
214
159
135
208
151
128
221
163
138
131
91
78
197
196
195
103
94
93
147
101
82
208
153
128
172
120
99
198
144
121
207
152
128
221
163
138
190
138
117
94
78
76
255
255
255
255
255
255
255
255
255
255
255
255
255
255
255
255
255
255
255
255
255
255
255
255
255
255
255
255
255
255
255
255
255
255
255
255
255
255
255
240
240
240
129
114
112
137
91
74
200
147
124
222
164
139
226
168
143
205
152
128
127
100
93
244
244
244
134
124
122
191
138
116
194
139
117
214
158
133
212
156
132
215
159
135
202
147
124
160
110
90
169
118
98
212
156
132
195
141
118
178
126
105
194
142
119
208
154
130
190
136
114
206
151
128
212
158
134
143
135
134
255
255
255
162
158
157
141
94
77
177
125
103
200
145
121
184
132
109
170
121
101
164
120
105
139
130
129
216
215
215
255
255
255
255
255
255
255
255
255
255
255
255
255
255
255
255
255
255
255
255
255
255
255
255
255
255
255
255
255
255
255
255
255
255
255
255
255
255
255
255
255
255
159
145
143
130
51
29
105
67
59
146
123
117
168
120
102
188
136
114
173
166
165
255
255
255
201
199
199
157
109
91
178
126
104
202
147
124
215
159
134
212
156
132
215
159
134
206
151
128
167
117
96
176
125
103
190
137
114
195
141
119
197
145
122
176
125
104
181
128
106
229
171
146
160
116
99
224
223
223
255
255
255
189
186
185
102
70
60
130
93
81
146
110
98
122
76
61
116
58
41
143
137
137
255
255
255
255
255
255
255
255
255
255
255
255
255
255
255
255
255
255
255
255
255
255
255
255
255
255
255
255
255
255
255
255
255
255
255
255
255
255
255
255
255
255
255
255
255
255
255
255
167
152
149
190
95
65
117
88
84
244
243
243
233
232
232
225
224
224
245
244
244
255
255
255
239
239
239
114
78
66
159
109
88
170
119
98
213
157
133
213
157
132
212
156
132
214
157
133
213
157
133
210
154
130
208
153
129
172
121
100
189
135
113
165
114
94
198
144
121
216
160
135
132
105
98
248
248
248
255
255
255
246
246
246
236
236
236
238
237
237
217
216
216
112
51
34
193
102
71
152
144
142
255
255
255
255
255
255
255
255
255
255
255
255
255
255
255
255
255
255
255
255
255
255
255
255
255
255
255
255
255
255
255
255
255
255
255
255
255
255
255
255
255
255
255
255
255
255
255
255
178
170
168
197
104
73
123
88
83
249
248
248
255
255
255
255
255
255
255
255
255
255
255
255
249
249
249
135
113
107
169
118
97
148
100
80
188
135
113
215
159
135
212
156
131
212
156
132
213
157
133
212
156
132
176
125
103
165
114
94
163
113
93
191
141
119
184
133
110
164
113
93
151
141
139
255
255
255
255
255
255
255
255
255
255
255
255
255
255
255
227
226
226
119
59
41
229
140
102
151
143
142
255
255
255
255
255
255
255
255
255
255
255
255
255
255
255
255
255
255
255
255
255
255
255
255
255
255
255
255
255
255
255
255
255
255
255
255
255
255
255
255
255
255
255
255
255
255
255
255
173
168
167
200
109
78
130
93
86
248
248
248
255
255
255
255
255
255
255
255
255
255
255
255
255
255
255
182
176
175
171
121
99
176
124
103
162
111
91
212
156
133
216
161
137
213
157
133
212
155
131
217
164
140
205
154
131
167
117
96
179
130
109
184
133
111
190
136
113
158
109
89
183
179
179
255
255
255
255
255
255
255
255
255
255
255
255
255
255
255
225
224
224
122
62
44
228
138
101
150
141
140
255
255
255
255
255
255
255
255
255
255
255
255
255
255
255
255
255
255
255
255
255
255
255
255
255
255
255
255
255
255
255
255
255
255
255
255
255
255
255
255
255
255
255
255
255
255
255
255
188
184
183
200
109
78
128
85
76
242
242
242
255
255
255
255
255
255
255
255
255
255
255
255
255
255
255
218
217
216
157
110
92
180
128
105
179
127
105
184
132
110
204
152
129
216
163
140
217
163
138
231
179
155
185
134
112
158
109
88
170
119
98
187
133
111
181
128
106
147
100
81
208
206
205
255
255
255
255
255
255
255
255
255
255
255
255
255
255
255
210
209
209
162
87
62
216
133
97
178
174
173
255
255
255
255
255
255
255
255
255
255
255
255
255
255
255
255
255
255
255
255
255
255
255
255
255
255
255
255
255
255
255
255
255
255
255
255
255
255
255
255
255
255
255
255
255
255
255
255
193
190
189
201
110
79
140
71
50
214
213
213
255
255
255
255
255
255
255
255
255
255
255
255
255
255
255
227
226
226
165
117
99
171
120
98
176
124
103
179
127
105
197
143
120
196
142
119
194
142
119
189
136
113
182
129
107
169
118
97
152
103
83
154
105
85
163
112
90
110
70
58
221
220
220
255
255
255
255
255
255
255
255
255
255
255
255
252
252
252
137
128
127
211
122
87
204
127
94
217
216
216
255
255
255
255
255
255
255
255
255
255
255
255
255
255
255
255
255
255
255
255
255
255
255
255
255
255
255
255
255
255
255
255
255
255
255
255
255
255
255
255
255
255
255
255
255
255
255
255
192
188
187
198
109
78
174
88
61
186
182
181
255
255
255
255
255
255
255
255
255
255
255
255
255
255
255
214
214
214
101
66
56
160
112
91
154
104
83
199
143
120
208
152
127
219
162
137
210
154
130
194
139
117
173
121
100
159
109
88
159
109
88
152
104
84
123
81
66
51
26
21
224
224
224
255
255
255
255
255
255
255
255
255
255
255
255
176
174
174
77
36
27
222
130
94
164
104
81
231
231
231
255
255
255
255
255
255
255
255
255
255
255
255
255
255
255
255
255
255
255
255
255
255
255
255
255
255
255
255
255
255
255
255
255
255
255
255
255
255
255
255
255
255
255
255
255
255
255
255
218
216
215
191
108
78
203
106
74
139
82
68
198
196
196
246
246
246
255
255
255
255
255
255
255
255
255
190
189
189
57
30
25
65
41
35
72
48
40
87
56
45
136
96
80
175
125
105
180
129
108
162
113
93
134
90
72
111
74
60
81
50
41
71
50
42
57
31
25
44
20
15
224
223
223
255
255
255
255
255
255
253
253
253
215
214
214
41
18
12
24
7
5
61
32
24
121
106
103
251
251
251
255
255
255
255
255
255
255
255
255
255
255
255
255
255
255
255
255
255
255
255
255
255
255
255
